<?xml version="1.0" standalone="no"?>
<!DOCTYPE svg PUBLIC "-//W3C//DTD SVG 20010904//EN"
 "http://www.w3.org/TR/2001/REC-SVG-20010904/DTD/svg10.dtd">
<svg version="1.0" xmlns="http://www.w3.org/2000/svg"
 width="200.000000pt" height="200.000000pt" viewBox="0 0 200.000000 200.000000"
 preserveAspectRatio="xMidYMid meet">

<g transform="translate(0.000000,200.000000) scale(0.100000,-0.100000)"
fill="#000000" stroke="none">
<path d="M1110 1430 c-11 -11 -20 -17 -21 -12 -1 26 -79 -162 -85 -207 -1 -14
-7 -34 -12 -45 -16 -35 -32 -91 -32 -111 0 -9 -23 -94 -51 -188 -27 -93 -49
-182 -47 -196 2 -14 -3 -31 -11 -37 -10 -8 -11 -16 -3 -30 5 -10 15 -31 22
-46 15 -32 25 -29 34 9 4 16 18 64 31 108 14 44 43 145 65 225 22 80 47 168
54 195 8 28 22 81 32 118 9 37 21 70 26 73 4 3 8 18 8 34 0 16 5 32 10 35 6 3
10 17 10 30 0 13 5 27 10 30 15 10 12 35 -5 35 -8 0 -24 -9 -35 -20z"/>
<path d="M1290 1326 c0 -2 8 -10 18 -17 15 -13 16 -12 3 4 -13 16 -21 21 -21
13z"/>
<path d="M560 815 c19 -19 36 -35 39 -35 3 0 -10 16 -29 35 -19 19 -36 35 -39
35 -3 0 10 -16 29 -35z"/>
</g>
</svg>
