<?xml version="1.0" encoding="UTF-8"?>
<svg version="1.1" xmlns="http://www.w3.org/2000/svg" width="512" height="366">
<path d="M0 0 C2.9375 2.5 2.9375 2.5 5 5 C5.33 5.33 5.66 5.66 6 6 C6.34375 8.00390625 6.34375 8.00390625 6.5 10.5625 C6.5721875 11.38878906 6.644375 12.21507813 6.71875 13.06640625 C4.57939217 21.79824173 -6.00498195 29.14065196 -12.25952148 35.37304688 C-13.38390746 36.49715026 -14.50807226 37.62147492 -15.6320343 38.7460022 C-18.66234678 41.77659984 -21.69571737 44.80411929 -24.7296741 47.83106804 C-27.90785299 51.00296644 -31.08317218 54.17772508 -34.25880432 57.35217285 C-40.26311297 63.35338197 -46.26996462 69.35203892 -52.27774912 75.34976816 C-59.12136293 82.1821779 -65.96211409 89.01745075 -72.80263412 95.85295773 C-86.86525461 109.90514506 -100.9314407 123.95375855 -115 138 C-110.26944145 143.68801042 -105.2060954 148.93014909 -99.96533203 154.14819336 C-98.63265541 155.48108902 -98.63265541 155.48108902 -97.27305603 156.84091187 C-94.85586711 159.25752678 -92.43649312 161.67191301 -90.01608896 164.08530498 C-87.47985876 166.6152501 -84.9464926 169.14805995 -82.41281128 171.68055725 C-77.62323711 176.46703323 -72.83112136 181.2509561 -68.03806961 186.03394943 C-62.57776393 191.48304685 -57.1203245 196.93501111 -51.66311479 202.38720882 C-40.4452454 213.59464808 -29.22381183 224.79851168 -18 236 C-17.9906543 234.99622314 -17.98130859 233.99244629 -17.97167969 232.95825195 C-17.93169769 229.2211529 -17.86591744 225.48487002 -17.79248047 221.74829102 C-17.76431814 220.13348911 -17.74308 218.51855057 -17.72900391 216.90356445 C-17.70750742 214.57692763 -17.66082789 212.25192523 -17.609375 209.92578125 C-17.60814636 209.20787918 -17.60691772 208.48997711 -17.60565186 207.75032043 C-17.46508775 202.90060763 -16.41121242 200.43007442 -13 197 C-9.51335549 194.47518846 -6.20248882 194.56525978 -2 195 C1.70390021 197.02666238 3.65363011 198.48044516 6 202 C6.26742554 204.94662476 6.26742554 204.94662476 6.29052734 208.59521484 C6.29724457 209.26061783 6.30396179 209.92602081 6.31088257 210.61158752 C6.32988113 212.81144681 6.33378773 215.01100128 6.3359375 217.2109375 C6.34236451 218.74166998 6.3490928 220.27240122 6.35610962 221.8031311 C6.36808726 225.01266324 6.37178999 228.22208771 6.37060547 231.43164062 C6.37040233 235.53982282 6.39769625 239.64731283 6.43214989 243.75533104 C6.45441368 246.91754309 6.45844317 250.07958848 6.45738602 253.24187088 C6.45974309 254.75611378 6.46857268 256.2703612 6.48405075 257.78452682 C6.50370028 259.90550593 6.49787858 262.02499172 6.48583984 264.14599609 C6.48868988 265.35162201 6.49153992 266.55724792 6.49447632 267.79940796 C5.90411182 271.62065452 4.65935512 273.25032819 2 276 C-1.48664451 278.52481154 -4.79751118 278.43474022 -9 278 C-13.41678323 275.40165353 -16.9400208 272.3194959 -20.56744385 268.72016907 C-21.09385397 268.20040676 -21.62026409 267.68064445 -22.16262603 267.14513177 C-23.91296014 265.41437273 -25.65618247 263.67663103 -27.39941406 261.9387207 C-28.65774877 260.69128931 -29.9164665 259.44424417 -31.17553711 258.19755554 C-34.58533912 254.81817828 -37.98845067 251.43214434 -41.38942432 248.04388452 C-43.51572625 245.92568039 -45.64306485 243.80852255 -47.77068329 241.69164085 C-54.43158659 235.06342694 -61.08809058 228.43083717 -67.73877168 221.79236633 C-75.40850547 214.13689889 -83.09283852 206.49649029 -90.79001832 198.86862117 C-96.74556251 192.96486013 -102.68759397 187.04771714 -108.61962676 181.12033337 C-112.16028479 177.58307183 -115.70642959 174.05176277 -119.26685333 170.53438759 C-122.61477959 167.2262402 -125.94560326 163.90178069 -129.26416016 160.56418037 C-130.48274612 159.34432948 -131.70730966 158.13041552 -132.93828583 156.923069 C-144.07175751 145.99118219 -144.07175751 145.99118219 -145.27318954 139.20556927 C-144.4888464 132.87325107 -141.20190423 128.61389461 -136.77554321 124.27433777 C-136.24972951 123.74298967 -135.72391581 123.21164158 -135.18216836 122.66419202 C-133.42979529 120.89827967 -131.66357847 119.14692873 -129.89697266 117.39526367 C-128.6328854 116.12739089 -127.3696574 114.85866092 -126.10722351 113.58914185 C-122.68456719 110.15254654 -119.24949572 106.72861765 -115.8116231 103.30725265 C-112.21353352 99.72303011 -108.62562381 96.12864205 -105.03622437 92.53572083 C-99.0090022 86.50579839 -92.97374973 80.48400592 -86.93359375 74.46704102 C-79.95040399 67.51047783 -72.97974884 60.54154645 -66.01573336 53.56579226 C-59.31380905 46.85309078 -52.60343383 40.14890042 -45.88904953 33.44866371 C-43.0323785 30.59775115 -40.17864885 27.74394126 -37.32722855 24.88777733 C-33.97047546 21.52625355 -30.60637484 18.1722597 -27.23644447 14.82394791 C-26.00071786 13.59378734 -24.76753111 12.3610694 -23.53708076 11.12563133 C-21.85769838 9.4402964 -20.16936609 7.76446908 -18.47842407 6.09074402 C-17.99310231 5.59941221 -17.50778054 5.1080804 -17.00775206 4.60185975 C-11.84966582 -0.46106267 -6.92608601 -2.22474278 0 0 Z " fill="#08AEB6" transform="translate(190,70)"/>
<path d="M0 0 C3.42605327 1.83284135 6.12743001 4.4048699 9 7 C10.13426285 7.98201052 11.27117695 8.96096375 12.41015625 9.9375 C14.98362731 12.14797192 17.54670902 14.3695978 20.1015625 16.6015625 C23.73753361 19.7760519 27.39495504 22.92457936 31.0625 26.0625 C31.63572998 26.55322998 32.20895996 27.04395996 32.79956055 27.54956055 C33.9549681 28.53854001 35.11048538 29.5273913 36.26611328 30.51611328 C39.76352798 33.50925416 43.25766391 36.5062223 46.75244141 39.50244141 C49.65552183 41.99114291 52.5593367 44.47897552 55.46484375 46.96484375 C62.12768834 52.66727831 68.76871705 58.39385689 75.39208984 64.14208984 C81.32888478 69.29161749 87.29453455 74.40700234 93.26611328 79.51611328 C96.75996663 82.5062063 100.25086021 85.49975645 103.74145508 88.49365234 C106.70463683 91.03470833 109.67030706 93.57275647 112.640625 96.10546875 C115.56352571 98.59873922 118.47820724 101.10128951 121.38671875 103.61132812 C122.92978192 104.93955804 124.48034684 106.25905788 126.03125 107.578125 C126.9284375 108.35671875 127.825625 109.1353125 128.75 109.9375 C129.91789062 110.94103516 129.91789062 110.94103516 131.109375 111.96484375 C133.68075229 114.73279327 134.90190586 117.27354306 135.1171875 121.0625 C135.03726563 121.701875 134.95734375 122.34125 134.875 123 C134.81054688 123.639375 134.74609375 124.27875 134.6796875 124.9375 C133.03042809 129.94214925 128.88459267 133.09376088 124.875 136.25 C121.14695303 139.23639306 117.52632476 142.277863 114 145.5 C110.60401318 148.59555196 107.13828469 151.55151207 103.5625 154.4375 C99.75912497 157.51336588 96.09917348 160.68753166 92.5 164 C88.0301488 168.11378909 83.40955107 171.97087297 78.68359375 175.78515625 C76.05291443 177.95632827 73.52057576 180.20241357 71 182.5 C66.70008209 186.41891252 62.24080453 190.09170869 57.71875 193.75 C55.07852271 195.93501569 52.5327028 198.19171391 50 200.5 C46.58260628 203.61458668 43.0947765 206.5918662 39.5 209.5 C34.16282284 213.82093045 29.07567034 218.3773647 24 223 C22.50504441 224.35973348 21.00544081 225.71438453 19.5 227.0625 C18.8709375 227.63097656 18.241875 228.19945312 17.59375 228.78515625 C16 230 16 230 14 230 C14 230.66 14 231.32 14 232 C14.56589844 232.24621094 15.13179688 232.49242187 15.71484375 232.74609375 C18.39248258 234.21536224 20.33043612 235.97752435 22.5625 238.0625 C26.18698399 241.38761658 29.87022316 244.58530533 33.6875 247.6875 C34.59757812 248.42742187 35.50765625 249.16734375 36.4453125 249.9296875 C38.02203607 251.20746042 39.59991922 252.48380582 41.1796875 253.7578125 C45.85024923 257.61441741 47.78953966 259.8252431 48.375 265.875 C48.26235068 270.18785966 46.82617939 272.70279071 44 276 C41.08290724 278.29200146 37.80912906 278.54890257 34.1328125 278.43359375 C29.93216583 277.57961613 27.12237094 274.79460824 24 272 C22.84177734 270.96746094 22.84177734 270.96746094 21.66015625 269.9140625 C19.97984346 268.40098463 18.30555816 266.88119176 16.63671875 265.35546875 C13.9846117 262.98625312 11.26567362 260.73516359 8.5 258.5 C3.99050743 254.84915552 -0.34665665 251.05410791 -4.6328125 247.14453125 C-7.54169102 244.50926011 -10.51501747 241.95401934 -13.50390625 239.41015625 C-16.08255682 236.9796266 -16.28761688 234.80498742 -16.5 231.375 C-16.39613591 226.18179544 -15.05256513 223.80594052 -11.43359375 220.1796875 C-6.64467904 215.89041879 -1.79301288 211.69065221 3.13720703 207.56445312 C6.11161205 205.06642071 9.05462569 202.5321266 12 200 C13.1677962 198.99849668 14.33576522 197.99719484 15.50390625 196.99609375 C16.08156738 196.50093262 16.65922852 196.00577148 17.25439453 195.49560547 C18.99059014 194.00806221 20.72760829 192.52148492 22.46484375 191.03515625 C28.49318763 185.87576284 34.50735906 180.70083909 40.5 175.5 C47.06614411 169.80143416 53.65992624 164.13595027 60.26611328 158.48388672 C62.59452722 156.49119453 64.92134289 154.49664138 67.24804688 152.50195312 C68.9972123 151.0023899 70.74665271 149.50314791 72.49609375 148.00390625 C74.84341526 145.99200998 77.18966417 143.97887242 79.53515625 141.96484375 C80.11885986 141.46388184 80.70256348 140.96291992 81.30395508 140.44677734 C82.46683393 139.44873249 83.62943631 138.4503654 84.79174805 137.45166016 C87.75790689 134.90683785 90.73595389 132.37785509 93.734375 129.87109375 C94.33499756 129.36779541 94.93562012 128.86449707 95.55444336 128.34594727 C96.70122619 127.38644628 97.8503745 126.42976333 99.00219727 125.47631836 C101.92326598 123.09196976 101.92326598 123.09196976 104 120 C103.43410156 119.75378906 102.86820312 119.50757813 102.28515625 119.25390625 C99.60751742 117.78463776 97.66956388 116.02247565 95.4375 113.9375 C91.87703072 110.66981527 88.2606708 107.53520807 84.5 104.5 C80.03579543 100.88850866 75.76997886 97.11339306 71.52734375 93.24609375 C68.93037607 90.93812402 66.26595987 88.74444137 63.5625 86.5625 C58.79003797 82.70291397 54.26890891 78.62800009 49.75390625 74.47265625 C46.16792716 71.25290481 42.43298508 68.24094824 38.68359375 65.21484375 C36.05291443 63.04367173 33.52057576 60.79758643 31 58.5 C27.58260628 55.38541332 24.0947765 52.4081338 20.5 49.5 C16.9052235 46.5918662 13.41739372 43.61458668 10 40.5 C5.6647999 36.55015102 1.17450087 32.83502057 -3.37890625 29.140625 C-5.79965321 27.16362152 -8.19375292 25.16392153 -10.5625 23.125 C-11.18253906 22.59132813 -11.80257813 22.05765625 -12.44140625 21.5078125 C-15.50562215 18.5434332 -16.32941371 16.32656901 -16.4375 12.1875 C-16.37791062 8.48212388 -15.99551267 6.31847705 -13.625 3.4375 C-9.35350202 -0.52889098 -5.68795251 -1.0333563 0 0 Z " fill="#0BAFB7" transform="translate(332,69)"/>
<path d="M0 0 C1.07785636 4.00707546 0.84754161 6.63167201 -0.24975586 10.61279297 C-0.55374802 11.73662384 -0.85774017 12.86045471 -1.17094421 14.01834106 C-1.51543106 15.24721039 -1.85991791 16.47607971 -2.21484375 17.7421875 C-2.57673269 19.06337141 -2.9376523 20.38482115 -3.29768372 21.70651245 C-4.28865574 25.33327301 -5.29337545 28.95610082 -6.30046082 32.57841492 C-7.38093964 36.47364084 -8.44899267 40.37227317 -9.51855469 44.27050781 C-11.36647058 50.99903246 -13.22246067 57.72528827 -15.08349609 64.45019531 C-17.75773653 74.11448058 -20.41523256 83.78331434 -23.06941986 93.45312309 C-32.91096541 129.30203665 -42.83446981 165.12854747 -52.84362793 200.93103027 C-53.80199515 204.3591765 -54.75861508 207.78780144 -55.71350098 211.21691895 C-69.14956172 259.44868517 -69.14956172 259.44868517 -77 283 C-80.76066582 282.49180192 -82.56311855 281.91282848 -85 279 C-86.05908203 276.87109375 -86.05908203 276.87109375 -87.0078125 274.4375 C-87.35457031 273.55835938 -87.70132813 272.67921875 -88.05859375 271.7734375 C-88.41050781 270.85820312 -88.76242188 269.94296875 -89.125 269 C-89.48464844 268.08476562 -89.84429687 267.16953125 -90.21484375 266.2265625 C-94.37243663 255.60679343 -94.28212252 249.06316282 -91.5 238.0625 C-91.26152344 237.09248047 -91.02304688 236.12246094 -90.77734375 235.12304688 C-90.19206612 232.74681968 -89.59946749 230.37267958 -89 228 C-89.66 227.67 -90.32 227.34 -91 227 C-90.3844197 224.85144546 -89.75726569 222.70620375 -89.125 220.5625 C-88.77695313 219.36753906 -88.42890625 218.17257812 -88.0703125 216.94140625 C-87 214 -87 214 -85 213 C-85.061875 212.071875 -85.12375 211.14375 -85.1875 210.1875 C-85.1875 205.01235976 -84.00227547 199.76261408 -82 195 C-81.01 194.67 -80.02 194.34 -79 194 C-79.20496094 193.15179688 -79.40992188 192.30359375 -79.62109375 191.4296875 C-80.0631166 187.42869714 -79.34102526 184.92183258 -78.0625 181.125 C-77.68222656 179.97257813 -77.30195313 178.82015625 -76.91015625 177.6328125 C-76.60980469 176.76398438 -76.30945313 175.89515625 -76 175 C-75.34 175 -74.68 175 -74 175 C-74.061875 173.906875 -74.12375 172.81375 -74.1875 171.6875 C-74.21703629 166.20359577 -72.60575122 161.19957538 -71 156 C-70.34 156 -69.68 156 -69 156 C-68.87882812 155.05898437 -68.75765625 154.11796875 -68.6328125 153.1484375 C-68.46523437 151.90320313 -68.29765625 150.65796875 -68.125 149.375 C-67.96257812 148.14523438 -67.80015625 146.91546875 -67.6328125 145.6484375 C-67.04516311 142.26038483 -66.18011878 139.22301349 -65 136 C-64.34 136 -63.68 136 -63 136 C-61.95785309 131.38492226 -61.95785309 131.38492226 -63 127 C-62.42983939 124.77092986 -61.77074336 122.56411584 -61.0625 120.375 C-60.68222656 119.18648438 -60.30195313 117.99796875 -59.91015625 116.7734375 C-59.60980469 115.85820312 -59.30945313 114.94296875 -59 114 C-58.34 114 -57.68 114 -57 114 C-57.061875 112.72125 -57.12375 111.4425 -57.1875 110.125 C-57.1875 104.87690936 -56.29296062 99.75577017 -54 95 C-53.01 94.67 -52.02 94.34 -51 94 C-51.20496094 93.15179688 -51.40992188 92.30359375 -51.62109375 91.4296875 C-52.0631166 87.42869714 -51.34102526 84.92183258 -50.0625 81.125 C-49.49208984 79.39636719 -49.49208984 79.39636719 -48.91015625 77.6328125 C-48.60980469 76.76398438 -48.30945313 75.89515625 -48 75 C-47.34 75 -46.68 75 -46 75 C-46.061875 73.906875 -46.12375 72.81375 -46.1875 71.6875 C-46.21703629 66.20359577 -44.60575122 61.19957538 -43 56 C-42.01 56 -41.02 56 -40 56 C-40.03480469 55.31035156 -40.06960938 54.62070313 -40.10546875 53.91015625 C-40.2954582 47.31480814 -39.52898251 42.09665427 -37 36 C-36.01 36 -35.02 36 -34 36 C-33.90203125 35.40574219 -33.8040625 34.81148437 -33.703125 34.19921875 C-30.37135919 15.7308962 -30.37135919 15.7308962 -22.6171875 9.703125 C-19.25442589 7.51482043 -15.82674949 5.49714869 -12.3125 3.5625 C-11.34993286 3.03039917 -11.34993286 3.03039917 -10.36791992 2.48754883 C-6.77546141 0.60756242 -4.07023447 -0.44360108 0 0 Z " fill="#F1602A" transform="translate(303,69)"/>
<path d="M0 0 C7.81682941 5.20610053 13.85872254 11.39291984 16.36328125 20.63671875 C18.1154911 30.42550649 16.06703631 39.32541144 10.51953125 47.484375 C5.25098377 54.13218844 -1.63270534 58.00542332 -10.01171875 59.32421875 C-18.74815577 60.16706611 -26.57484737 58.37452658 -33.76171875 53.26171875 C-39.1668959 48.76698811 -42.79569352 42.97229445 -45.01171875 36.32421875 C-45.80783974 24.70868295 -45.27773445 16.27920342 -37.63671875 7.01171875 C-28.15573306 -3.15658786 -12.68648901 -6.80913252 0 0 Z " fill="#FEFEFE" transform="translate(186.01171875,171.67578125)"/>
<path d="M0 0 C7.19280514 5.16574188 12.97466725 11.76740903 14.77734375 20.67578125 C15.65819719 29.87065488 14.46403184 38.41250556 9 46 C2.54067669 53.08832108 -4.2853019 57.36865744 -13.95703125 58.16015625 C-23.20816743 58.53279396 -30.81979076 56.03726619 -37.953125 50.10546875 C-45.09313013 42.76107416 -47.30468274 35.14361663 -47.31469727 25.19140625 C-47.14555527 16.3039454 -44.01885133 10.29177158 -38 3.79296875 C-27.76987138 -5.37818171 -11.75585235 -7.69350183 0 0 Z " fill="#FEFEFE" transform="translate(352,173)"/>
</svg>
